<svg width="82" height="82" viewBox="0 0 82 82" fill="none" xmlns="http://www.w3.org/2000/svg">
<path d="M71.0612 59.7893L66.9294 54.7657L62.1389 64.3344C62.1389 64.3344 62.079 43.4029 62.1389 34.0137C62.1389 30.3656 60.6419 27.9136 57.4682 26.1195C48.6656 21.2754 39.863 16.192 31.1204 11.2283C34.7132 9.19493 39.9828 6.50374 45.2524 9.01551C52.0788 12.9028 58.8454 16.7901 65.612 20.6773C69.2049 22.7107 71.0612 25.8205 71.0013 29.947C71.0612 37.3029 71.0612 59.7893 71.0612 59.7893Z" fill="#8E2BF3"/>
<path d="M40.5823 47.1704L30.4025 51.0577C29.7438 51.2969 29.145 50.8185 29.145 50.1008L28.9653 35.6282C28.9653 34.7311 29.9833 34.3125 30.5821 34.9105L40.9416 45.4959C41.4207 46.0341 41.241 46.8714 40.5823 47.1704Z" fill="#00E4FF"/>
<path d="M55.3122 27.9133L31.4195 14.4574C30.3417 13.8593 29.0842 13.5603 27.7668 13.5603C26.3895 13.5603 25.0122 13.8593 23.9344 14.5172L14.6528 19.5407C12.3773 20.976 11 24.026 11 27.6741V53.9281C11 56.0213 12.1377 57.9948 13.8743 59.1311L37.9466 72.9458C40.4017 74.3213 43.3958 74.3811 45.8509 72.9458L55.432 67.5037C57.3482 66.4272 58.5458 64.334 58.5458 62.1213V33.5349C58.6057 31.2025 57.3482 29.0496 55.3122 27.9133ZM49.9229 58.5928C49.9229 59.9683 49.0845 61.2242 47.827 61.7625L43.5156 64.1546C41.7191 64.6929 39.8029 63.736 38.4855 63.0184L22.6769 54.0477C20.8804 53.0311 19.8026 51.0575 19.8026 49.0242V32.279C19.8026 29.229 20.2217 27.3751 22.4972 25.5809L26.15 23.3682C27.1081 22.5907 28.4854 22.4711 29.5632 23.0692L47.8869 34.2525C49.2043 34.9702 49.9828 36.4055 49.9828 37.9006V58.5928H49.9229Z" fill="#0066FF"/>
</svg>
