<svg  viewBox="0 0 159 175" fill="none" xmlns="http://www.w3.org/2000/svg">
<path d="M158.36 136.55L147.466 123.305L134.835 148.534C134.835 148.534 134.677 93.3452 134.835 68.589C134.835 58.9703 130.888 52.5053 122.52 47.7749C99.3105 35.0025 76.1012 21.5995 53.0498 8.51182C62.523 3.1506 76.417 -3.94513 90.311 2.67755C108.31 12.9269 126.151 23.1763 143.992 33.4257C153.466 38.7869 158.36 46.9864 158.202 57.8666C158.36 77.2616 158.36 136.55 158.36 136.55Z" fill="#FFF"/>
<path d="M71.9957 105.279L45.155 115.529C43.4182 116.159 41.8394 114.898 41.8394 113.006L41.3657 74.8464C41.3657 72.4811 44.0498 71.3774 45.6287 72.9542L72.943 100.864C74.2061 102.283 73.7324 104.491 71.9957 105.279Z" fill="#FFF"/>
<path d="M116.836 52.5053L53.8392 17.0267C50.9973 15.4499 47.6817 14.6614 44.2082 14.6614C40.5768 14.6614 36.9454 15.4499 34.1035 17.1844L9.63107 30.4297C3.63139 34.2141 0 42.2559 0 51.8746V121.097C0 126.616 2.99984 131.82 7.57854 134.816L71.0489 171.241C77.5222 174.867 85.4165 175.025 91.8899 171.241L117.152 156.891C122.204 154.053 125.362 148.534 125.362 142.7V67.3275C125.52 61.1779 122.204 55.5013 116.836 52.5053ZM102.626 133.397C102.626 137.023 100.416 140.335 97.1001 141.754L85.7323 148.061C80.9957 149.48 75.9433 146.957 72.4698 145.065L30.7878 121.413C26.0512 118.732 23.2093 113.529 23.2093 108.167V64.0162C23.2093 55.9743 24.3145 51.0862 30.3142 46.3557L39.9452 40.5214C42.4714 38.4715 46.1028 38.1562 48.9448 39.733L97.258 69.2197C100.731 71.1119 102.784 74.8963 102.784 78.8384V133.397H102.626Z" fill="#FFF"/>
</svg>
