<svg viewBox="0 0 1024 1024" fill="none" xmlns="http://www.w3.org/2000/svg">
<rect width="1024" height="1024" />
<mask id="mask0" mask-type="alpha" maskUnits="userSpaceOnUse" x="88" y="88" width="849" height="848">
<path d="M683.632 88.8567H341.225C202.069 88.8567 88.8569 202.069 88.8569 341.225V683.631C88.8569 822.788 202.069 936 341.225 936H683.632C822.788 936 936 822.788 936 683.631V341.225C935.999 202.069 822.787 88.8567 683.632 88.8567ZM850.778 683.631C850.778 775.943 775.943 850.777 683.632 850.777H341.225C248.914 850.777 174.08 775.943 174.08 683.631V341.225C174.08 248.912 248.914 174.079 341.225 174.079H683.632C775.943 174.079 850.778 248.912 850.778 341.225V683.631Z" fill="#9B32C3"/>
<path d="M512.423 293.298C391.61 293.298 293.322 391.587 293.322 512.398C293.322 633.209 391.61 731.5 512.423 731.5C633.236 731.5 731.525 633.211 731.525 512.398C731.525 391.585 633.236 293.298 512.423 293.298ZM512.423 646.279C438.483 646.279 378.544 586.34 378.544 512.4C378.544 438.46 438.485 378.521 512.423 378.521C586.363 378.521 646.302 438.46 646.302 512.4C646.302 586.338 586.361 646.279 512.423 646.279Z" fill="#9B32C3"/>
<path d="M731.949 347.502C760.945 347.502 784.45 323.997 784.45 295.001C784.45 266.005 760.945 242.5 731.949 242.5C702.953 242.5 679.448 266.005 679.448 295.001C679.448 323.997 702.953 347.502 731.949 347.502Z" fill="#9B32C3"/>
</mask>
<g mask="url(#mask0)">
<path d="M512.055 -70.5312C268.91 -70.5312 197.799 -70.2804 183.977 -69.1338C134.079 -64.9861 103.03 -57.1297 69.2035 -40.2882C43.135 -27.3435 22.5758 -12.3385 2.28538 8.69551C-34.6674 47.0547 -57.063 94.2468 -65.1702 150.343C-69.1119 177.576 -70.2585 183.131 -70.4914 322.234C-70.581 368.602 -70.4914 429.626 -70.4914 511.477C-70.4914 754.425 -70.2227 825.464 -69.0581 839.26C-65.0269 887.813 -57.4124 918.361 -41.2875 951.775C-10.4712 1015.74 48.3845 1063.75 117.721 1081.67C141.729 1087.85 168.246 1091.26 202.287 1092.87C216.71 1093.49 363.715 1093.94 510.809 1093.94C657.904 1093.94 804.998 1093.76 819.063 1093.05C858.479 1091.19 881.367 1088.12 906.674 1081.58C941.054 1072.76 973.095 1056.55 1000.56 1034.07C1028.02 1011.58 1050.25 983.378 1065.68 951.417C1081.49 918.809 1089.51 887.097 1093.14 841.078C1093.93 831.045 1094.26 671.078 1094.26 511.325C1094.26 351.546 1093.9 191.874 1093.11 181.841C1089.44 135.079 1081.42 103.635 1065.1 70.3999C1051.71 43.1937 1036.84 22.8764 1015.25 2.10224C976.728 -34.6982 929.607 -57.0939 873.448 -65.1921C846.242 -69.1248 840.822 -70.2894 701.611 -70.5312H512.055Z" fill="url(#paint0_radial)"/>
<path d="M512.24 30.9725C311.241 30.9725 252.456 31.1799 241.029 32.1281C199.781 35.5578 174.113 42.0542 146.15 55.9803C124.6 66.6842 107.604 79.0917 90.8309 96.4846C60.2832 128.204 41.7695 167.226 35.0675 213.612C31.8091 236.131 30.8612 240.724 30.6687 355.748C30.5946 394.089 30.6687 444.549 30.6687 512.231C30.6687 713.123 30.8908 771.865 31.8535 783.272C35.186 823.421 41.4807 848.681 54.8106 876.311C80.2855 929.2 128.94 968.904 186.258 983.719C206.105 988.831 228.025 991.646 256.166 992.979C268.089 993.497 389.613 993.868 511.211 993.868C632.809 993.868 754.408 993.72 766.034 993.127C798.618 991.594 817.539 989.053 838.46 983.645C866.881 976.355 893.368 962.947 916.072 944.356C938.776 925.766 957.148 902.443 969.907 876.014C982.978 849.051 989.606 822.828 992.605 784.776C993.257 776.479 993.531 644.204 993.531 512.105C993.531 379.985 993.235 247.953 992.583 239.657C989.547 200.99 982.919 174.989 969.426 147.508C958.355 125.011 946.062 108.211 928.214 91.0326C896.371 60.6026 857.418 42.0838 810.993 35.3874C788.502 32.1355 784.022 31.1725 668.941 30.9725H512.24Z" fill="url(#paint1_radial)"/>
</g>
<defs>
<radialGradient id="paint0_radial" cx="0" cy="0" r="1" gradientUnits="userSpaceOnUse" gradientTransform="translate(238.868 1183.63) rotate(-90) scale(1154.08 1073.68)">
<stop stop-color="#FFDD55"/>
<stop offset="0.1" stop-color="#FFDD55"/>
<stop offset="0.5" stop-color="#FF543E"/>
<stop offset="1" stop-color="#C837AB"/>
</radialGradient>
<radialGradient id="paint1_radial" cx="0" cy="0" r="1" gradientUnits="userSpaceOnUse" gradientTransform="translate(-130.654 100.338) rotate(78.6806) scale(426.576 1758.37)">
<stop stop-color="#3771C8"/>
<stop offset="0.128" stop-color="#3771C8"/>
<stop offset="1" stop-color="#6600FF" stop-opacity="0"/>
</radialGradient>
</defs>
</svg>
