<svg viewBox="0 0 1024 1024" fill="none" xmlns="http://www.w3.org/2000/svg">
<g clip-path="url(#clip0)">
<mask id="mask0" mask-type="alpha" maskUnits="userSpaceOnUse" x="0" y="0" width="1025" height="1025">
<path d="M719.546 0H305.31C136.962 0 0 136.962 0 305.31V719.546C0 887.895 136.962 1024.86 305.31 1024.86H719.546C887.895 1024.86 1024.86 887.895 1024.86 719.546V305.31C1024.85 136.962 887.893 0 719.546 0ZM921.756 719.546C921.756 831.223 831.223 921.756 719.546 921.756H305.31C193.634 921.756 103.101 831.223 103.101 719.546V305.31C103.101 193.632 193.634 103.101 305.31 103.101H719.546C831.223 103.101 921.756 193.632 921.756 305.31V719.546Z" fill="#9B32C3"/>
<path d="M512.422 247.329C366.265 247.329 247.357 366.237 247.357 512.392C247.357 658.547 366.265 777.456 512.422 777.456C658.579 777.456 777.486 658.549 777.486 512.392C777.486 366.235 658.579 247.329 512.422 247.329ZM512.422 674.358C422.971 674.358 350.458 601.845 350.458 512.394C350.458 422.943 422.973 350.43 512.422 350.43C601.873 350.43 674.386 422.943 674.386 512.394C674.386 601.843 601.871 674.358 512.422 674.358Z" fill="#9B32C3"/>
<path d="M778 312.904C813.078 312.904 841.515 284.467 841.515 249.389C841.515 214.311 813.078 185.874 778 185.874C742.921 185.874 714.485 214.311 714.485 249.389C714.485 284.467 742.921 312.904 778 312.904Z" fill="#9B32C3"/>
</mask>
<g mask="url(#mask0)">
<path d="M511.976 -192.824C217.825 -192.824 131.796 -192.521 115.074 -191.134C54.7093 -186.116 17.1465 -176.611 -23.776 -156.237C-55.3131 -140.577 -80.1852 -122.424 -104.732 -96.9773C-149.437 -50.5711 -176.531 6.52093 -186.339 74.3854C-191.107 107.331 -192.494 114.051 -192.776 282.336C-192.884 338.431 -192.776 412.256 -192.776 511.278C-192.776 805.191 -192.451 891.133 -191.042 907.822C-186.165 966.562 -176.953 1003.52 -157.446 1043.94C-120.165 1121.32 -48.9623 1179.41 34.92 1201.09C63.9645 1208.56 96.0435 1212.68 137.226 1214.63C154.674 1215.39 332.518 1215.93 510.47 1215.93C688.422 1215.93 866.374 1215.72 883.388 1214.85C931.073 1212.61 958.763 1208.89 989.379 1200.98C1030.97 1190.31 1069.73 1170.69 1102.96 1143.5C1136.19 1116.3 1163.07 1082.17 1181.74 1043.51C1200.87 1004.06 1210.57 965.695 1214.96 910.022C1215.92 897.884 1216.32 704.359 1216.32 511.094C1216.32 317.796 1215.88 124.628 1214.93 112.49C1210.49 55.9183 1200.79 17.8786 1181.04 -22.3285C1164.84 -55.242 1146.85 -79.8215 1120.73 -104.954C1074.13 -149.474 1017.12 -176.568 949.183 -186.365C916.269 -191.123 909.713 -192.532 741.298 -192.824H511.976Z" fill="white"/>
<path d="M512.201 -70.0271C269.035 -70.0271 197.919 -69.7762 184.095 -68.6291C134.193 -64.48 103.141 -56.6208 69.3121 -39.7732C43.2414 -26.8239 22.6805 -11.8135 2.38829 9.22804C-34.5676 47.601 -56.9652 94.81 -65.0731 150.927C-69.0151 178.169 -70.1618 183.726 -70.3948 322.879C-70.4843 369.264 -70.3948 430.309 -70.3948 512.19C-70.3948 755.225 -70.126 826.289 -68.9613 840.09C-64.9298 888.661 -57.3146 919.219 -41.1884 952.646C-10.3694 1016.63 48.4914 1064.66 117.834 1082.59C141.844 1088.77 168.363 1092.18 202.407 1093.79C216.831 1094.42 363.849 1094.86 510.956 1094.86C658.063 1094.86 805.17 1094.68 819.235 1093.97C858.655 1092.11 881.545 1089.04 906.855 1082.5C941.238 1073.68 973.281 1057.46 1000.75 1034.97C1028.21 1012.48 1050.44 984.26 1065.88 952.287C1081.69 919.667 1089.71 887.944 1093.34 841.909C1094.12 831.872 1094.46 671.847 1094.46 512.038C1094.46 352.201 1094.1 192.472 1093.31 182.435C1089.64 135.656 1081.62 104.202 1065.29 70.9546C1051.9 43.7386 1037.03 23.414 1015.44 2.6324C976.914 -34.1813 929.79 -56.5849 873.626 -64.6861C846.417 -68.6202 840.997 -69.7851 701.774 -70.0271H512.201Z" fill="white"/>
</g>
</g>
<defs>
<clipPath id="clip0">
<rect width="1024" height="1024" fill="white"/>
</clipPath>
</defs>
</svg>
